<?xml version="1.0" encoding="UTF-8"?>
<svg version="1.1" xmlns="http://www.w3.org/2000/svg" width="1200" height="630">
<path d="M0 0 C396 0 792 0 1200 0 C1200 207.9 1200 415.8 1200 630 C804 630 408 630 0 630 C0 422.1 0 214.2 0 0 Z " fill="#FEFEFD" transform="translate(0,0)"/>
<path d="M0 0 C115 0 115 0 127 4 C127 4.66 127 5.32 127 6 C127.845625 6.103125 128.69125 6.20625 129.5625 6.3125 C133.41442701 7.0828854 136.44075031 8.36274514 140 10 C140 10.66 140 11.32 140 12 C140.86496094 12.23074219 141.72992187 12.46148437 142.62109375 12.69921875 C146.49240869 14.18956312 148.92465608 16.11192982 152.0625 18.8125 C153.06410156 19.66457031 154.06570313 20.51664063 155.09765625 21.39453125 C159.51445904 25.35954802 163.14283847 28.85278779 165.96875 34.1171875 C167.06448518 36.1177343 168.2663133 38.01926764 169.5 39.9375 C180.99283098 58.29066701 180.57797102 79.12850238 177 100 C176.39880803 102.35987735 175.71528348 104.67082059 175 107 C174.34 107 173.68 107 173 107 C172.91492188 107.86238281 172.82984375 108.72476563 172.7421875 109.61328125 C169.885441 122.64906661 155.41140061 135.24765422 144.77734375 142.07421875 C143 143 143 143 141 143 C141 143.66 141 144.32 141 145 C138.03 145.99 138.03 145.99 135 147 C135.5053125 147.91523438 136.010625 148.83046875 136.53125 149.7734375 C137.18771927 150.97383845 137.8439573 152.17436587 138.5 153.375 C138.83386719 153.97828125 139.16773438 154.5815625 139.51171875 155.203125 C142 159.7734375 142 159.7734375 142 162 C142.66 162 143.32 162 144 162 C148.40774487 170.261959 148.40774487 170.261959 149 175 C149.66 175 150.32 175 151 175 C151.41894531 175.84046875 151.83789062 176.6809375 152.26953125 177.546875 C153.44636215 179.8952238 154.62984127 182.23879255 155.82421875 184.578125 C156.44534347 185.80206761 157.06643696 187.02602608 157.6875 188.25 C158.00783203 188.87390625 158.32816406 189.4978125 158.65820312 190.140625 C161 194.77428705 161 194.77428705 161 197 C161.66 197 162.32 197 163 197 C163.99 199.97 164.98 202.94 166 206 C166.66 206 167.32 206 168 206 C168.67119549 207.4562545 169.33681807 208.91507867 170 210.375 C170.37125 211.18710937 170.7425 211.99921875 171.125 212.8359375 C172 215 172 215 172 217 C172.66 217 173.32 217 174 217 C174.40992188 217.92683594 174.81984375 218.85367188 175.2421875 219.80859375 C175.78101563 221.00613281 176.31984375 222.20367187 176.875 223.4375 C177.40867187 224.63246094 177.94234375 225.82742188 178.4921875 227.05859375 C179.67727235 230.08527631 179.67727235 230.08527631 182 231 C183.0703125 232.77734375 183.0703125 232.77734375 184.125 234.9375 C184.65480469 236.00291016 184.65480469 236.00291016 185.1953125 237.08984375 C186 239 186 239 186 241 C166.53 241 147.06 241 127 241 C125.35 237.7 123.7 234.4 122 231 C121.236875 229.535625 120.47375 228.07125 119.6875 226.5625 C118 223 118 223 118 220 C117.34 220 116.68 220 116 220 C115.5153125 219.030625 115.030625 218.06125 114.53125 217.0625 C114.0508728 216.10210815 114.0508728 216.10210815 113.56079102 215.12231445 C112.84695805 213.69415566 112.13391883 212.2655999 111.42163086 210.83666992 C109.54019085 207.06512348 107.64639549 203.30094996 105.72265625 199.55078125 C105.36042969 198.83986328 104.99820313 198.12894531 104.625 197.39648438 C103.93066122 196.03461033 103.2316336 194.67511398 102.52734375 193.31835938 C100.79103866 189.89868532 99.51749648 186.81198111 99 183 C98.34 183 97.68 183 97 183 C96.16013916 181.06532058 95.32831973 179.12714871 94.5 177.1875 C93.80390625 175.56908203 93.80390625 175.56908203 93.09375 173.91796875 C92 171 92 171 92 168 C91.34 168 90.68 168 90 168 C89.47599609 166.71802734 89.47599609 166.71802734 88.94140625 165.41015625 C88.48636719 164.30542969 88.03132812 163.20070313 87.5625 162.0625 C87.11003906 160.96035156 86.65757812 159.85820312 86.19140625 158.72265625 C85.25575392 156.13431084 85.25575392 156.13431084 84 155 C73.11 154.67 62.22 154.34 51 154 C51 182.71 51 211.42 51 241 C34.17 241 17.34 241 0 241 C0 161.47 0 81.94 0 0 Z " fill="#020202" transform="translate(478,200)"/>
<path d="M0 0 C17.16 0 34.32 0 52 0 C52 30.36 52 60.72 52 92 C79.72 92 107.44 92 136 92 C136 61.64 136 31.28 136 0 C152.83 0 169.66 0 187 0 C187 79.2 187 158.4 187 240 C170.17 240 153.34 240 136 240 C136 206.34 136 172.68 136 138 C108.28 138.33 80.56 138.66 52 139 C51.67 172.33 51.34 205.66 51 240 C34.17 240 17.34 240 0 240 C0 160.8 0 81.6 0 0 Z " fill="#010101" transform="translate(266,200)"/>
<path d="M0 0 C0 0.66 0 1.32 0 2 C1.19625 2.12375 2.3925 2.2475 3.625 2.375 C7.27596813 2.82325054 10.54524899 3.70446837 14 5 C14 5.66 14 6.32 14 7 C15.258125 7.33 16.51625 7.66 17.8125 8 C28.92616487 11.68699782 37.67701462 20.42519357 44 30 C44 30.66 44 31.32 44 32 C44.66 32 45.32 32 46 32 C46.67354499 33.43429001 47.33859701 34.87257057 48 36.3125 C48.37125 37.11300781 48.7425 37.91351563 49.125 38.73828125 C50 41 50 41 50 44 C50.66 44 51.32 44 52 44 C54.5100817 54.35606033 56 63.27250945 56 74 C39.5 74 23 74 6 74 C5.01 70.04 4.02 66.08 3 62 C-0.44275723 55.24199506 -6.37606669 49.74029054 -13.5 47.0625 C-15.2325 46.5365625 -15.2325 46.5365625 -17 46 C-17 45.34 -17 44.68 -17 44 C-29.21505711 42.52258489 -41.80686166 42.22645261 -54 44 C-54 44.66 -54 45.32 -54 46 C-54.69867188 46.17015625 -55.39734375 46.3403125 -56.1171875 46.515625 C-57.02726562 46.75796875 -57.93734375 47.0003125 -58.875 47.25 C-60.23238281 47.59804687 -60.23238281 47.59804687 -61.6171875 47.953125 C-64.50179945 49.22046271 -64.87178935 50.13859618 -66 53 C-67.0209375 54.2684375 -67.0209375 54.2684375 -68.0625 55.5625 C-72.10063507 60.64273444 -71.60333298 66.78969249 -71 73 C-69.97026994 75.75245381 -68.72547386 77.5640369 -67 80 C-66.566875 81.1446875 -66.566875 81.1446875 -66.125 82.3125 C-64.35691694 84.96462459 -61.99426314 85.17804541 -59 86 C-57.32836805 86.65411685 -55.65984798 87.31653318 -54 88 C-54 88.66 -54 89.32 -54 90 C-53.03964844 90.12246094 -52.07929688 90.24492187 -51.08984375 90.37109375 C-46.52510921 91.02319868 -42.05572678 92.03785602 -37.5625 93.0625 C-36.73556641 93.24876953 -35.90863281 93.43503906 -35.05664062 93.62695312 C-33.03720996 94.0822005 -31.01852613 94.54075861 -29 95 C-29 95.66 -29 96.32 -29 97 C-28.37996094 97.03738281 -27.75992188 97.07476562 -27.12109375 97.11328125 C-18.91598451 97.72239416 -11.02761202 99.27747596 -3 101 C-3 101.66 -3 102.32 -3 103 C-1.906875 103.103125 -0.81375 103.20625 0.3125 103.3125 C5.68965184 103.9689566 10.81178648 105.483592 16 107 C16 107.66 16 108.32 16 109 C17.216875 109.165 18.43375 109.33 19.6875 109.5 C32.12748201 112.28185424 43.90053019 122.00485558 50.875 132.4375 C54.45627933 138.4201476 57 143.97420581 57 151 C57.66 151 58.32 151 59 151 C61.32533572 166.35490282 61.39492896 180.73929991 58 196 C57.34 196 56.68 196 56 196 C55.8453125 197.2684375 55.8453125 197.2684375 55.6875 198.5625 C54.9171146 202.41442701 53.63725486 205.44075031 52 209 C51.34 209 50.68 209 50 209 C49.77441406 209.70382812 49.54882812 210.40765625 49.31640625 211.1328125 C47.72503929 214.59887585 45.52127267 217.12831051 42.9375 219.875 C42.44797852 220.3994873 41.95845703 220.92397461 41.45410156 221.46435547 C35.47060523 227.75653963 29.74861859 233.32473261 21 235 C21 235.66 21 236.32 21 237 C19.73160474 237.50615298 18.46016898 238.00469099 17.1875 238.5 C16.12595703 238.91765625 16.12595703 238.91765625 15.04296875 239.34375 C13 240 13 240 10 240 C10 240.66 10 241.32 10 242 C-14.25619619 249.85837889 -42.49399872 249.31029533 -67 243 C-67 242.34 -67 241.68 -67 241 C-67.804375 240.9175 -68.60875 240.835 -69.4375 240.75 C-74.01515236 239.78628371 -77.80810927 238.03929819 -82 236 C-82.98226562 235.56171875 -83.96453125 235.1234375 -84.9765625 234.671875 C-91.8976807 231.33761368 -97.08361299 227.46381557 -102.5 222.0625 C-103.07516357 221.48967285 -103.65032715 220.9168457 -104.24291992 220.32666016 C-114 210.18433796 -114 210.18433796 -114 205 C-114.66 205 -115.32 205 -116 205 C-116.50615298 203.73160474 -117.00469099 202.46016898 -117.5 201.1875 C-117.7784375 200.47980469 -118.056875 199.77210938 -118.34375 199.04296875 C-119 197 -119 197 -119 194 C-119.66 194 -120.32 194 -121 194 C-123.99618645 182.90697636 -124 173.91788359 -124 162 C-107.83 162 -91.66 162 -75 162 C-74.01 167.28 -73.02 172.56 -72 178 C-71.34 180.31 -70.68 182.62 -70 185 C-69.34 185 -68.68 185 -68 185 C-66.44921875 186.609375 -66.44921875 186.609375 -64.6875 188.75 C-57.92592858 196.62230184 -51.23969293 199.67528448 -41 201 C-26.02165408 201.83007082 -12.0747705 202.03806223 0 192 C2.7782997 189.2482869 4.74498764 186.76503707 6 183 C6.66 183 7.32 183 8 183 C8 176.73 8 170.46 8 164 C7.34 164 6.68 164 6 164 C5.608125 163.071875 5.21625 162.14375 4.8125 161.1875 C2.8516724 157.73914801 1.5018046 156.70600737 -2 155 C-2.66 154.67 -3.32 154.34 -4 154 C-4 153.34 -4 152.68 -4 152 C-4.58628174 151.88970459 -5.17256348 151.77940918 -5.77661133 151.66577148 C-12.48108837 150.36899917 -19.07528061 148.76238963 -25.6875 147.0625 C-34.74967502 144.76057321 -43.8017152 142.68045588 -53 141 C-53 140.34 -53 139.68 -53 139 C-54.8871875 138.8453125 -54.8871875 138.8453125 -56.8125 138.6875 C-62.3851218 138.08409509 -67.63960058 136.59309067 -73 135 C-73 134.34 -73 133.68 -73 133 C-74.918125 132.6596875 -74.918125 132.6596875 -76.875 132.3125 C-82.40785216 131.08587712 -87.05568102 128.70584621 -92 126 C-92.66386719 125.65710938 -93.32773438 125.31421875 -94.01171875 124.9609375 C-100.72632494 121.37787216 -105.23453095 115.77403393 -110 110 C-110.86625 109.01 -111.7325 108.02 -112.625 107 C-122.17851769 93.44016844 -121.94826319 69.35360556 -119.3984375 53.59375 C-118.26994695 48.25906741 -116.76270464 43.15782707 -115 38 C-114.34 38 -113.68 38 -113 38 C-112.62875 36.700625 -112.62875 36.700625 -112.25 35.375 C-107.44520687 22.40205854 -94.15632224 11.687073 -82 6 C-75.70871075 3.25915683 -69.84551932 1.51664297 -63 1 C-63 0.34 -63 -0.32 -63 -1 C-42.26610714 -4.94931293 -20.63353779 -3.99358796 0 0 Z " fill="#020202" transform="translate(188,198)"/>
<path d="M0 0 C9.605583 -0.25575873 19.20998098 -0.45075651 28.8182354 -0.56993389 C33.28076965 -0.62715867 37.7409621 -0.70465626 42.20214844 -0.82983398 C46.51418874 -0.95005861 50.82398927 -1.01526518 55.13757706 -1.04364967 C56.77641174 -1.06385352 58.41513433 -1.10331253 60.05300522 -1.16303062 C72.83096611 -1.61005898 72.83096611 -1.61005898 78.14605713 2.33529663 C80.69420695 5.10595396 82.85592783 7.91033828 85 11 C86.44624044 12.78072328 87.90295827 14.55304555 89.375 16.3125 C90.10074219 17.21097656 90.82648438 18.10945313 91.57421875 19.03515625 C95.80208697 24.20255075 100.17747714 29.24411477 104.53662109 34.30078125 C107.02986864 37.19584346 109.51449297 40.09829289 112 43 C112.52207031 43.60908203 113.04414062 44.21816406 113.58203125 44.84570312 C114.55891548 45.98540139 115.53545791 47.1253927 116.51171875 48.265625 C117.4700646 49.38243748 118.43081815 50.49719069 119.39453125 51.609375 C125.24297981 58.37617499 131.00521434 65.2357149 136.3125 72.4375 C138.36078546 75.20970005 140.52015975 77.59765476 143 80 C147.47730093 85.02331324 151.61117816 90.29140959 155.7512207 95.59204102 C158.70606084 99.3703694 161.70220436 103.10825607 164.75 106.8125 C170.42526184 113.7308174 170.42526184 113.7308174 172.9375 116.875 C173.48277344 117.55304688 174.02804687 118.23109375 174.58984375 118.9296875 C176.13237576 121.19434668 177.07275266 123.42879239 178 126 C177.38511719 126.66386719 176.77023437 127.32773437 176.13671875 128.01171875 C175.32847656 128.89472656 174.52023437 129.77773438 173.6875 130.6875 C172.48673828 131.99267578 172.48673828 131.99267578 171.26171875 133.32421875 C168.98141554 135.86851998 168.98141554 135.86851998 167.51953125 138.51953125 C165.70067869 141.48860934 163.50720833 143.59037762 161 146 C156.03272923 151.27978119 151.22361847 156.65697107 146.6875 162.3125 C142.57825164 167.41439094 138.16663662 172.16360169 133.67675781 176.92651367 C130.02427139 180.82606734 126.6283193 184.81974504 123.46484375 189.1328125 C121.79188419 191.26527828 119.93053689 193.09945203 118 195 C116.94632892 196.17686148 115.90471198 197.36461898 114.875 198.5625 C112.01273977 201.86510796 109.08393801 205.09626304 106.125 208.3125 C102.83567762 211.91391171 99.67982364 215.57307275 96.625 219.375 C92.59450317 224.38061703 88.30513406 229.08989525 83.89697266 233.76123047 C81.12585381 236.64441384 81.12585381 236.64441384 79 240 C71.67583319 240.1451624 64.35161017 240.28720094 57.02734375 240.42724609 C54.5449085 240.47505929 52.06248603 240.52354172 49.58007812 240.57275391 C34.71798982 240.86687439 19.86514343 241.07726612 5 241 C6.05277207 237.84168378 6.64975486 237.18237049 9 235 C11.92150664 232.23225687 14.41966192 229.49894499 16.6875 226.1875 C17.8321875 224.6096875 17.8321875 224.6096875 19 223 C19.66 223 20.32 223 21 223 C21.33644531 221.93845703 21.33644531 221.93845703 21.6796875 220.85546875 C23.27371083 217.40803959 25.51560469 215.0030667 28.125 212.3125 C32.3981508 207.7871219 36.38646955 203.14309076 40.23046875 198.2421875 C42.72693214 195.07889835 45.35468036 192.03883827 48 189 C51.51235852 184.95336722 54.93929509 180.85129981 58.3125 176.6875 C61.32349968 172.98827182 64.40928619 169.397494 67.625 165.875 C71.01308303 162.15279806 74.15261916 158.32611977 77.20703125 154.328125 C83.17118702 146.58381816 89.52963682 139.15811296 95.92651367 131.77075195 C96.87895005 130.66792257 97.82542861 129.55990751 98.76464844 128.44580078 C99.80023333 127.23379807 100.88329904 126.06258581 101.9765625 124.90234375 C103.27189435 122.98769173 103.27189435 122.98769173 102.4765625 120.57421875 C100.75281613 117.56906303 98.7671859 115.3194812 96.375 112.8125 C92.98398637 109.18661097 89.75249511 105.53067948 86.6875 101.625 C83.97324817 98.17247167 81.14880028 95.06806181 78 92 C73.99384202 87.61858165 70.22642963 83.05751224 66.5 78.4375 C63.44929563 74.68080493 60.30550786 71.23816957 56.82421875 67.88671875 C53.68504657 64.63999463 50.92457267 61.08112412 48.11328125 57.55078125 C46.0591803 54.9785945 46.0591803 54.9785945 43.73046875 52.79296875 C42 51 42 51 42 49 C41.34 49 40.68 49 40 49 C39.67 48.01 39.34 47.02 39 46 C37.35720946 44.30979445 35.68729284 42.64578201 34 41 C32.58150406 39.31043712 31.18590351 37.60141717 29.8125 35.875 C26.65327983 31.96657836 23.40495393 28.19620193 20 24.5 C14.32015043 18.32471184 8.99945108 11.8784111 3.8671875 5.2421875 C2.19648152 2.93110206 2.19648152 2.93110206 0 2 C0 1.34 0 0.68 0 0 Z " fill="#04318A" transform="translate(849,200)"/>
<path d="M0 0 C57.09 0 114.18 0 173 0 C173 15.18 173 30.36 173 46 C152.54 46 132.08 46 111 46 C111 110.35 111 174.7 111 241 C94.5 241 78 241 61 241 C61 176.65 61 112.3 61 46 C40.87 46 20.74 46 0 46 C0 30.82 0 15.64 0 0 Z " fill="#010101" transform="translate(661,200)"/>
<path d="M0 0 C0.75237946 0.01797638 1.50475891 0.03595276 2.27993774 0.05447388 C3.08031464 0.05374374 3.88069153 0.05301361 4.70532227 0.05226135 C7.34644745 0.05574022 9.98580104 0.09461335 12.62661743 0.13381958 C14.45935096 0.14314669 16.29209696 0.15026329 18.12484741 0.15525818 C22.9453278 0.17433607 27.76505321 0.22344359 32.5852356 0.27877808 C37.50517565 0.32995356 42.42523786 0.35276858 47.34536743 0.37796021 C56.99674055 0.43156163 66.64755368 0.51688397 76.29849243 0.62210083 C73.63998556 4.68022619 70.93444919 8.27207278 67.61099243 11.80960083 C61.84515528 18.05237577 56.47966284 24.57661242 51.22817993 31.25491333 C49.6570706 33.18222559 48.05300227 34.87216003 46.29849243 36.62210083 C44.9521679 38.25732417 43.62050235 39.90465826 42.29849243 41.55960083 C38.95628936 45.68183184 35.49235814 49.62603678 31.86099243 53.49710083 C27.05031684 58.63704344 22.77746181 64.05767226 18.58755493 69.71194458 C16.32559298 72.58764706 13.89905975 75.05315135 11.29849243 77.62210083 C9.3404035 79.81634294 7.44540702 82.06243441 5.54849243 84.30960083 C0.5633349 90.1725946 -4.53448183 95.91849934 -9.70150757 101.62210083 C-14.68865166 107.11393077 -14.68865166 107.11393077 -19.01400757 113.12210083 C-19.57088257 113.94710083 -20.12775757 114.77210083 -20.70150757 115.62210083 C-21.36150757 115.62210083 -22.02150757 115.62210083 -22.70150757 115.62210083 C-24.07650757 114.07522583 -24.07650757 114.07522583 -25.70150757 111.87210083 C-28.56760196 108.07839082 -31.5221813 104.39135928 -34.57650757 100.74710083 C-40.59716545 93.55916087 -46.61076058 86.36889091 -52.32650757 78.93460083 C-55.61138237 74.6727258 -59.11062402 70.62773688 -62.70150757 66.62210083 C-60.69899184 63.00749696 -58.5776478 60.32613266 -55.57650757 57.49710083 C-51.26236285 53.29556021 -47.48144283 48.81972403 -43.74447632 44.10256958 C-41.83996681 41.790211 -39.83708433 39.7186914 -37.70150757 37.62210083 C-36.68981334 36.48657944 -35.68998025 35.34039311 -34.70150757 34.18460083 C-31.98957893 31.05366176 -29.20743867 28.00238483 -26.38119507 24.97537231 C-16.50229429 14.56274802 -16.50229429 14.56274802 -8.07925415 3.00523376 C-5.34671579 0.26650533 -3.80168902 0.03757262 0 0 Z " fill="#B31116" transform="translate(1061.7015075683594,199.37789916992188)"/>
<path d="M0 0 C1.15560061 1.15560061 2.31016861 2.31224404 3.4609375 3.47265625 C4.47147728 4.47550157 5.49730074 5.46322175 6.5390625 6.43359375 C11.00843062 10.68055256 14.70052625 15.35083423 18.36010742 20.29296875 C21.63976274 24.68613222 25.2844485 28.42354727 29.3125 32.125 C31 34 31 34 31 37 C31.66 37 32.32 37 33 37 C34.48046875 38.46875 34.48046875 38.46875 36.1875 40.5 C36.81011719 41.2321875 37.43273438 41.964375 38.07421875 42.71875 C38.70972656 43.4715625 39.34523438 44.224375 40 45 C41.16375388 46.33587642 42.33034548 47.66928696 43.5 49 C44.08265625 49.66644531 44.6653125 50.33289063 45.265625 51.01953125 C46.37797748 52.28971753 47.49238139 53.55811192 48.609375 54.82421875 C53.28749356 60.13722483 57.85555264 65.54029649 62.421875 70.94921875 C65.26505608 74.3136497 68.12777334 77.66039918 71 81 C71.47695312 81.55816406 71.95390625 82.11632812 72.4453125 82.69140625 C75.0634454 85.75503297 77.7032801 88.79545576 80.375 91.8125 C83.84276785 95.75138998 87.08121137 99.85303231 90.30078125 103.99609375 C91.8493637 106.08841357 91.8493637 106.08841357 94 107 C94 107.66 94 108.32 94 109 C83.89049867 109.30233421 73.78208613 109.53274738 63.66897106 109.67355824 C58.97177235 109.74117443 54.27768376 109.83272507 49.58227539 109.98071289 C45.04322046 110.12286354 40.50713836 110.19986869 35.96602821 110.23340416 C34.24137886 110.25727129 32.51687737 110.30388702 30.79350853 110.37449074 C17.69924952 110.88918776 17.69924952 110.88918776 13.22351456 107.75664902 C10.00909599 104.75526694 7.50910224 101.34742071 5.11893654 97.67259789 C3.33663968 95.00840216 1.29391879 92.59286786 -0.75 90.125 C-1.46929688 89.238125 -2.18859375 88.35125 -2.9296875 87.4375 C-5.32981496 84.61168956 -7.91060802 82.05400145 -10.578125 79.484375 C-12.44583289 77.53457006 -13.65148814 75.32924776 -15 73 C-16.3303125 71.6696875 -16.3303125 71.6696875 -17.6875 70.3125 C-18.450625 69.549375 -19.21375 68.78625 -20 68 C-20 67.34 -20 66.68 -20 66 C-20.58136719 65.76539063 -21.16273438 65.53078125 -21.76171875 65.2890625 C-24.51662135 63.70246938 -25.89166208 61.90221241 -27.8125 59.375 C-30.95741585 55.29782017 -34.23350006 51.45123543 -37.75 47.69140625 C-39 46 -39 46 -39 43 C-38.34 43 -37.68 43 -37 43 C-36.77699219 42.45859375 -36.55398438 41.9171875 -36.32421875 41.359375 C-34.57919585 38.25024866 -32.24689607 35.82143026 -29.8125 33.25 C-28.80658908 32.17122762 -27.80137925 31.09180107 -26.796875 30.01171875 C-26.31154297 29.4914209 -25.82621094 28.97112305 -25.32617188 28.43505859 C-23.70049666 26.67590562 -22.12573605 24.8772468 -20.5625 23.0625 C-16.92599999 18.86247457 -13.14197258 14.80164409 -9.34985352 10.74243164 C-6.10700694 7.25609124 -3.0188841 3.68237511 0 0 Z " fill="#030303" transform="translate(1042,333)"/>
<path d="M0 0 C6.826875 -0.04125 13.65375 -0.0825 20.6875 -0.125 C22.81405029 -0.14320801 24.94060059 -0.16141602 27.1315918 -0.18017578 C51.39878302 -0.30060849 51.39878302 -0.30060849 58 3 C58 3.66 58 4.32 58 5 C58.721875 5.103125 59.44375 5.20625 60.1875 5.3125 C65.6826476 6.6557583 68.80759586 9.38874958 72 14 C72 14.66 72 15.32 72 16 C72.66 16 73.32 16 74 16 C77.87215784 25.35771479 78.99049042 36.28713445 75.16796875 45.90625 C71.32963543 52.78700806 65.68889157 58.6901019 58 61 C56.68 61 55.36 61 54 61 C54 61.66 54 62.32 54 63 C48.29987719 64.22024851 42.7114375 64.12714702 36.9140625 64.09765625 C35.97651123 64.09664917 35.03895996 64.09564209 34.07299805 64.09460449 C30.59031949 64.08939554 27.10765844 64.07543435 23.625 64.0625 C15.82875 64.041875 8.0325 64.02125 0 64 C0 42.88 0 21.76 0 0 Z " fill="#FCFCFA" transform="translate(529,245)"/>
<path d="M0 0 C24.09 0.33 48.18 0.66 73 1 C73 1.33 73 1.66 73 2 C65.67583319 2.1451624 58.35161017 2.28720094 51.02734375 2.42724609 C48.5449085 2.47505929 46.06248603 2.52354172 43.58007812 2.57275391 C28.71798982 2.86687439 13.86514343 3.07726612 -1 3 C-0.67 2.01 -0.34 1.02 0 0 Z " fill="#8183B0" transform="translate(855,438)"/>
<path d="M0 0 C0 4.0436392 -1.7041209 5.72017272 -4 9 C-4.4125 9.804375 -4.825 10.60875 -5.25 11.4375 C-7.8831372 15.29316519 -11.41531728 18.04540403 -15 21 C-15.66 20.67 -16.32 20.34 -17 20 C-16.19175781 19.05898438 -15.38351562 18.11796875 -14.55078125 17.1484375 C-13.47133178 15.89064421 -12.39190596 14.63283063 -11.3125 13.375 C-10.78205078 12.75753906 -10.25160156 12.14007813 -9.70507812 11.50390625 C-6.43774572 7.69535927 -3.20310202 3.86273898 0 0 Z " fill="#223387" transform="translate(925,356)"/>
<path d="M0 0 C0.33 0.99 0.66 1.98 1 3 C0.01 3.33 -0.98 3.66 -2 4 C-3.00916033 5.76591887 -3.00916033 5.76591887 -4 8 C-6.96567582 13.05263288 -10.46695682 16.4092186 -15 20 C-15.66 19.67 -16.32 19.34 -17 19 C-15.66195313 17.57107422 -15.66195313 17.57107422 -14.296875 16.11328125 C-13.11449055 14.84644076 -11.93220405 13.57950884 -10.75 12.3125 C-10.16347656 11.68666016 -9.57695313 11.06082031 -8.97265625 10.41601562 C-5.83256933 7.04659651 -2.8186503 3.6488963 0 0 Z " fill="#AB2829" transform="translate(1047,211)"/>
<path d="M0 0 C4.95576859 1.37660239 6.33095439 3.74620855 9 8 C10.6454378 9.68762851 12.31288577 11.3540349 14 13 C15.71047633 14.96751512 17.3538615 16.97760127 19 19 C16 19 16 19 13.73046875 16.875 C12.89128906 15.92625 12.05210937 14.9775 11.1875 14 C10.74680176 13.50395264 10.30610352 13.00790527 9.85205078 12.49682617 C6.3371884 8.49704415 3.06676216 4.35081298 0 0 Z " fill="#1C2A80" transform="translate(858,211)"/>
<path d="M0 0 C1.98 0.99 1.98 0.99 4 2 C4 2.66 4 3.32 4 4 C4.66 4 5.32 4 6 4 C7.3671875 5.57421875 7.3671875 5.57421875 8.875 7.6875 C9.4009375 8.41324219 9.926875 9.13898438 10.46875 9.88671875 C11.22671875 10.93279297 11.22671875 10.93279297 12 12 C13.32481269 13.67344761 14.65407903 15.34348188 16 17 C15.67 17.66 15.34 18.32 15 19 C12.86807083 16.5893697 10.74572468 14.17048957 8.625 11.75 C7.72007812 10.72712891 7.72007812 10.72712891 6.796875 9.68359375 C6.21679688 9.01972656 5.63671875 8.35585938 5.0390625 7.671875 C4.50490723 7.0644043 3.97075195 6.45693359 3.42041016 5.83105469 C1.97749456 3.97098817 0.97726112 2.13595468 0 0 Z " fill="#15247E" transform="translate(907,267)"/>
<path d="M0 0 C0.33 0.99 0.66 1.98 1 3 C-1.89380576 7.17048478 -3.98990293 9.56854369 -9 11 C-8.06558465 9.72689688 -7.12732889 8.456612 -6.1875 7.1875 C-5.66542969 6.47980469 -5.14335938 5.77210938 -4.60546875 5.04296875 C-3.16871123 3.21468607 -1.68184237 1.60103312 0 0 Z " fill="#AA2426" transform="translate(1016,246)"/>
<path d="M0 0 C0.99 0.33 1.98 0.66 3 1 C1.02 3.31 -0.96 5.62 -3 8 C-3.33 7.01 -3.66 6.02 -4 5 C-2.0625 2.3125 -2.0625 2.3125 0 0 Z " fill="#062482" transform="translate(897,390)"/>
<path d="M0 0 C3.26782914 1.08927638 3.81937333 1.68347929 5.75 4.375 C6.42289063 5.28378906 6.42289063 5.28378906 7.109375 6.2109375 C8 8 8 8 7 11 C6.401875 10.05125 5.80375 9.1025 5.1875 8.125 C3.18437474 4.86035803 3.18437474 4.86035803 0 3 C0 2.01 0 1.02 0 0 Z " fill="#2A3788" transform="translate(923,285)"/>
<path d="M0 0 C0.66 0 1.32 0 2 0 C2 0.66 2 1.32 2 2 C2.61875 2.226875 3.2375 2.45375 3.875 2.6875 C6.62260139 4.38454792 6.93210179 6.02514071 8 9 C8.66 9.33 9.32 9.66 10 10 C9.01 10 8.02 10 7 10 C5.17578125 8.06640625 5.17578125 8.06640625 3.3125 5.5625 C2.68988281 4.73878906 2.06726563 3.91507813 1.42578125 3.06640625 C0 1 0 1 0 0 Z " fill="#192680" transform="translate(876,231)"/>
<path d="M0 0 C0.6875 1.8125 0.6875 1.8125 1 4 C-0.4375 5.75 -0.4375 5.75 -2 7 C-2.99 6.67 -3.98 6.34 -5 6 C-3.35 4.02 -1.7 2.04 0 0 Z " fill="#263689" transform="translate(949,327)"/>
<path d="M0 0 C1.8125 0.1875 1.8125 0.1875 4 1 C5.75 3.5625 5.75 3.5625 7 6 C6.01 6 5.02 6 4 6 C0 1.54285714 0 1.54285714 0 0 Z " fill="#2B3889" transform="translate(896,255)"/>
<path d="M0 0 C0.33 0.99 0.66 1.98 1 3 C0.01 3.33 -0.98 3.66 -2 4 C-3.20882096 6.00016466 -3.20882096 6.00016466 -4 8 C-4.99 8 -5.98 8 -7 8 C-4.69 5.36 -2.38 2.72 0 0 Z " fill="#B13A3C" transform="translate(1047,211)"/>
</svg>
